<svg width="53" height="39" viewBox="0 0 53 39" fill="none" xmlns="http://www.w3.org/2000/svg">
<rect x="0.204102" y="16" width="7.97726" height="8.1818" fill="black"/>
<rect x="36" y="16" width="7.97726" height="8.1818" transform="rotate(90 36 16)" fill="black"/>
<rect x="48.3633" y="4" width="7.97726" height="8.1818" transform="rotate(90 48.3633 4)" fill="black"/>
<rect x="4.29541" y="20.0909" width="7.97726" height="8.1818" fill="black"/>
<rect x="31.9092" y="20.0909" width="7.97726" height="8.1818" transform="rotate(90 31.9092 20.0909)" fill="black"/>
<rect x="44.2725" y="8.09088" width="7.97726" height="8.1818" transform="rotate(90 44.2725 8.09088)" fill="black"/>
<rect x="52.1816" width="7.97726" height="8.1818" transform="rotate(90 52.1816 0)" fill="black"/>
<rect x="8.38623" y="24.1818" width="7.97726" height="8.1818" fill="black"/>
<rect x="27.8184" y="24.1818" width="7.97726" height="8.1818" transform="rotate(90 27.8184 24.1818)" fill="black"/>
<rect x="24.1816" y="28" width="7.97726" height="8.1818" transform="rotate(90 24.1816 28)" fill="black"/>
<rect x="21.1816" y="31" width="7.97726" height="8.1818" transform="rotate(90 21.1816 31)" fill="black"/>
<rect x="40.1816" y="12.1818" width="7.97726" height="8.1818" transform="rotate(90 40.1816 12.1818)" fill="black"/>
</svg>
