<svg width="36" height="37" viewBox="0 0 36 37" fill="none" xmlns="http://www.w3.org/2000/svg">
<rect x="0.204102" y="0.852295" width="7.97726" height="8.1818" fill="black"/>
<rect x="35.7954" y="36.4431" width="7.97726" height="8.1818" transform="rotate(-180 35.7954 36.4431)" fill="black"/>
<rect y="36.4431" width="7.97726" height="8.1818" transform="rotate(-90 0 36.4431)" fill="black"/>
<rect x="36" y="0.852295" width="7.97726" height="8.1818" transform="rotate(90 36 0.852295)" fill="black"/>
<rect x="4.29541" y="4.94318" width="7.97726" height="8.1818" fill="black"/>
<rect x="31.7041" y="32.3522" width="7.97726" height="8.1818" transform="rotate(-180 31.7041 32.3522)" fill="black"/>
<rect x="4.09082" y="32.3522" width="7.97726" height="8.1818" transform="rotate(-90 4.09082 32.3522)" fill="black"/>
<rect x="31.9092" y="4.94318" width="7.97726" height="8.1818" transform="rotate(90 31.9092 4.94318)" fill="black"/>
<rect x="8.38623" y="9.03412" width="7.97726" height="8.1818" fill="black"/>
<rect x="27.6138" y="28.2614" width="7.97726" height="8.1818" transform="rotate(-180 27.6138 28.2614)" fill="black"/>
<rect x="8.18213" y="28.2614" width="7.97726" height="8.1818" transform="rotate(-90 8.18213 28.2614)" fill="black"/>
<rect x="27.8184" y="9.03412" width="7.97726" height="8.1818" transform="rotate(90 27.8184 9.03412)" fill="black"/>
<rect x="23.7275" y="12.9205" width="11.8636" height="12.2727" transform="rotate(90 23.7275 12.9205)" fill="black"/>
</svg>
