<svg width="26" height="76" viewBox="0 0 26 76" fill="none" xmlns="http://www.w3.org/2000/svg">
<rect x="22.6514" y="13.9764" width="19.7597" height="2.89167" transform="rotate(-180 22.6514 13.9764)" fill="#B2DDEA"/>
<rect x="17.832" y="13.9764" width="10.1208" height="2.89167" transform="rotate(-180 17.832 13.9764)" fill="#D7EAF1"/>
<rect x="22.6514" y="8.19306" width="19.7597" height="5.30139" transform="rotate(-180 22.6514 8.19306)" fill="#EBB8D9"/>
<rect x="22.6514" y="54.9417" width="19.7597" height="38.0737" transform="rotate(-180 22.6514 54.9417)" fill="#FCB041"/>
<rect x="22.6514" y="66.5084" width="19.7597" height="9.6389" transform="rotate(-180 22.6514 66.5084)" fill="#E8C2A1"/>
<rect x="17.832" y="66.5084" width="10.1208" height="9.6389" transform="rotate(-180 17.832 66.5084)" fill="#EED4C0"/>
<rect x="17.832" y="54.9417" width="10.1208" height="38.0737" transform="rotate(-180 17.832 54.9417)" fill="#F9BD6D"/>
<rect x="17.832" y="8.19306" width="10.1208" height="5.30139" transform="rotate(-180 17.832 8.19306)" fill="#EDE1E9"/>
<rect x="14.5425" y="75.1834" width="3.68258" height="3.07823" transform="rotate(-180 14.5425 75.1834)" fill="black"/>
<rect x="15.77" y="73.5044" width="6.13763" height="3.07823" transform="rotate(-180 15.77 73.5044)" fill="black"/>
<rect x="17.6118" y="71.2657" width="9.8202" height="3.07823" transform="rotate(-180 17.6118 71.2657)" fill="black"/>
<rect x="19.7598" y="69.5866" width="14.1165" height="3.07823" transform="rotate(-180 19.7598 69.5866)" fill="black"/>
<rect x="5.7832" y="66.5084" width="2.89167" height="2.89167" transform="rotate(-180 5.7832 66.5084)" fill="black"/>
<rect x="22.6514" y="2.89166" width="19.7597" height="2.89167" transform="rotate(-180 22.6514 2.89166)" fill="black"/>
<rect x="22.6514" y="11.0847" width="19.7597" height="2.89167" transform="rotate(-180 22.6514 11.0847)" fill="black"/>
<rect x="22.6514" y="16.8681" width="19.7597" height="2.89167" transform="rotate(-180 22.6514 16.8681)" fill="black"/>
<rect x="22.6514" y="57.8334" width="19.7597" height="2.89167" transform="rotate(-180 22.6514 57.8334)" fill="black"/>
<rect x="2.8916" y="63.6167" width="2.89168" height="60.7251" transform="rotate(-180 2.8916 63.6167)" fill="black"/>
<rect x="25.543" y="63.6167" width="2.89168" height="60.7251" transform="rotate(-180 25.543 63.6167)" fill="black"/>
<rect x="22.6514" y="66.5084" width="2.89167" height="2.89167" transform="rotate(-180 22.6514 66.5084)" fill="black"/>
</svg>
