<svg width="29" height="42" viewBox="0 0 29 42" fill="none" xmlns="http://www.w3.org/2000/svg">
<rect x="0.880371" y="0.403503" width="28.1198" height="5.17996" fill="black"/>
<rect x="8.77393" y="8.29675" width="12.3332" height="2.46665" fill="black"/>
<rect x="3.34717" y="5.58344" width="2.71331" height="7.6466" fill="black"/>
<rect x="26.5332" y="36.6632" width="2.71331" height="7.6466" transform="rotate(-180 26.5332 36.6632)" fill="black"/>
<rect width="2.71331" height="7.6466" transform="matrix(-1 0 0 1 26.5332 5.58344)" fill="black"/>
<rect width="2.71331" height="7.6466" transform="matrix(1 8.74228e-08 8.74228e-08 -1 3.34717 36.6632)" fill="black"/>
<rect x="6.06055" y="13.23" width="2.46665" height="2.71331" fill="black"/>
<rect x="23.8203" y="29.0166" width="2.46665" height="2.71331" transform="rotate(-180 23.8203 29.0166)" fill="black"/>
<rect width="2.46665" height="2.71331" transform="matrix(-1 0 0 1 23.8203 13.23)" fill="black"/>
<rect width="2.46665" height="2.71331" transform="matrix(1 8.74228e-08 8.74228e-08 -1 6.06055 29.0166)" fill="black"/>
<rect x="8.52686" y="15.9434" width="2.46665" height="2.71331" fill="black"/>
<rect x="21.3535" y="26.3033" width="2.46665" height="2.71331" transform="rotate(-180 21.3535 26.3033)" fill="black"/>
<rect width="2.46665" height="2.71331" transform="matrix(-1 0 0 1 21.3535 15.9434)" fill="black"/>
<rect width="2.46665" height="2.71331" transform="matrix(1 8.74228e-08 8.74228e-08 -1 8.52686 26.3033)" fill="black"/>
<rect x="10.9937" y="18.6567" width="2.71331" height="4.93329" fill="black"/>
<rect x="18.8867" y="23.59" width="2.71331" height="4.93329" transform="rotate(-180 18.8867 23.59)" fill="black"/>
<rect width="2.71331" height="4.93329" transform="matrix(-1 0 0 1 18.8867 18.6567)" fill="black"/>
<rect width="2.71331" height="4.93329" transform="matrix(1 8.74228e-08 8.74228e-08 -1 10.9937 23.59)" fill="black"/>
<rect x="10.7471" y="10.7634" width="8.38659" height="2.46665" fill="black"/>
<rect x="13.707" y="13.23" width="2.46665" height="2.46665" fill="black"/>
<rect x="0.880371" y="36.6632" width="28.1198" height="4.93329" fill="black"/>
</svg>
