<svg width="35" height="24" viewBox="0 0 35 24" fill="none" xmlns="http://www.w3.org/2000/svg">
<path fill-rule="evenodd" clip-rule="evenodd" d="M9.40914e-08 21.913L1.01328e-06 2.08694L2 2.08694L2 21.913L9.40914e-08 21.913Z" fill="black"/>
<path fill-rule="evenodd" clip-rule="evenodd" d="M33 21.913L33 2.08694L35 2.08694L35 21.913L33 21.913Z" fill="black"/>
<path fill-rule="evenodd" clip-rule="evenodd" d="M2 -1.19805e-05L33 -1.19805e-05V2.08694L2 2.08694V-1.19805e-05Z" fill="black"/>
<path fill-rule="evenodd" clip-rule="evenodd" d="M2 21.913L33 21.913V24L2 24V21.913Z" fill="black"/>
<path d="M14 2.08698L14 12.5218L2 12.5218L2 2.08697L14 2.08698Z" fill="#152587"/>
<path d="M33 2L33 13L14 13L14 2L33 2Z" fill="white"/>
<path d="M33 12.5217L33 21.913L2 21.913L2 12.5217L33 12.5217Z" fill="#FF0000"/>
<path d="M7 4L8 4L8 5.04348L7 5.04348L7 4Z" fill="white"/>
<path d="M6 5L9 5L9 6.04348L6 6.04348L6 5Z" fill="white"/>
<path d="M4 6L11 6L11 7L4 7L4 6Z" fill="white"/>
<path d="M5 7L10 7L10 8L5 8L5 7Z" fill="white"/>
<path d="M5 9L6 9L6 10L5 10L5 9Z" fill="white"/>
<path d="M6 8L7 8L7 9L6 9L6 8Z" fill="white"/>
<path d="M9 9L10 9L10 10L9 10L9 9Z" fill="white"/>
<path d="M8 8L9 8L9 9L8 9L8 8Z" fill="white"/>
</svg>
