<svg width="22" height="37" viewBox="0 0 22 37" fill="none" xmlns="http://www.w3.org/2000/svg">
<path d="M1 31V3L3 3.5L20.5 19.5L21.5 22.5H15.5L15 24L19 31V33.5L15 35.5L10 25L3.5 31H1Z" fill="white"/>
<rect width="2.2" height="32.323" fill="black"/>
<rect x="2.2002" y="2.20001" width="2.2" height="2.2" fill="black"/>
<rect x="8.7998" y="8.46149" width="2.2" height="2.2" fill="black"/>
<rect x="19.7998" y="18.9538" width="2.2" height="5.07691" fill="black"/>
<rect x="14.3848" y="21.9999" width="7.61537" height="2.03077" fill="black"/>
<rect x="2.2002" y="30.123" width="2.2" height="2.2" fill="black"/>
<rect x="6.43066" y="26.2307" width="2.2" height="2.2" fill="black"/>
<rect x="4.3999" y="27.923" width="2.2" height="2.2" fill="black"/>
<rect x="8.63086" y="24.0307" width="2.2" height="2.2" fill="black"/>
<rect x="14.3848" y="24.0307" width="2.2" height="2.2" fill="black"/>
<rect x="16.4155" y="26.2307" width="2.2" height="3.8923" fill="black"/>
<rect x="18.2769" y="30.123" width="2.2" height="3.8923" fill="black"/>
<rect x="10.3228" y="26.0615" width="2.2" height="3.8923" fill="black"/>
<rect x="12.1841" y="29.9538" width="2.2" height="4.06153" fill="black"/>
<rect x="14.3848" y="34.0153" width="3.8923" height="2.2" fill="black"/>
<rect x="4.3999" y="4.23071" width="2.2" height="2.2" fill="black"/>
<rect x="15.3999" y="14.723" width="2.2" height="2.2" fill="black"/>
<rect x="11" y="10.4923" width="2.2" height="2.2" fill="black"/>
<rect x="6.6001" y="6.26154" width="2.2" height="2.2" fill="black"/>
<rect x="17.6001" y="16.7538" width="2.2" height="2.2" fill="black"/>
<rect x="13.2002" y="12.523" width="2.2" height="2.2" fill="black"/>
</svg>
