<svg width="92" height="103" viewBox="0 0 92 103" fill="none" xmlns="http://www.w3.org/2000/svg">
<path fill-rule="evenodd" clip-rule="evenodd" d="M69.1079 3.32494L69.1079 99.6898L3.63867 99.6898L3.63868 3.32494L69.1079 3.32494Z" fill="#B6E0F0"/>
<path d="M62.8555 30.9103V6.81907H65.9818L90.4408 30.9103H62.8555Z" fill="#E5CFBD"/>
<path fill-rule="evenodd" clip-rule="evenodd" d="M6.58163 4.42834L6.58162 99.6898L2.16797 99.6898L2.16797 4.42834L6.58163 4.42834Z" fill="white"/>
<path fill-rule="evenodd" clip-rule="evenodd" d="M3.63942 0.0146855L61.3848 0.0146883L61.3848 3.32493L3.63942 3.32493L3.63942 0.0146855Z" fill="black"/>
<path fill-rule="evenodd" clip-rule="evenodd" d="M62.1204 29.8069L87.8667 29.8069L87.8667 33.1171L62.1204 33.1171L62.1204 29.8069Z" fill="black"/>
<path fill-rule="evenodd" clip-rule="evenodd" d="M61.7525 3.32492L69.8442 3.32492L69.8442 7.73858L61.7525 7.73858L61.7525 3.32492Z" fill="black"/>
<path fill-rule="evenodd" clip-rule="evenodd" d="M65.43 7.73859L72.7861 7.73859L72.7861 12.1522L65.43 12.1522L65.43 7.73859Z" fill="black"/>
<path fill-rule="evenodd" clip-rule="evenodd" d="M72.7863 12.1522L76.4644 12.1522L76.4644 15.8303L72.7863 15.8303L72.7863 12.1522Z" fill="black"/>
<path fill-rule="evenodd" clip-rule="evenodd" d="M69.1081 12.1522L72.7861 12.1522L72.7861 15.8303L69.1081 15.8303L69.1081 12.1522Z" fill="#9B9B9B"/>
<path fill-rule="evenodd" clip-rule="evenodd" d="M76.4644 15.8303L80.5103 15.8303L80.5103 20.244L76.4644 20.244L76.4644 15.8303Z" fill="black"/>
<path fill-rule="evenodd" clip-rule="evenodd" d="M72.7862 15.8303L76.832 15.8303L76.832 20.244L72.7862 20.244L72.7862 15.8303Z" fill="#9B9B9B"/>
<path fill-rule="evenodd" clip-rule="evenodd" d="M80.5103 20.2439L84.5562 20.2439L84.5562 24.6576L80.5103 24.6576L80.5103 20.2439Z" fill="black"/>
<path fill-rule="evenodd" clip-rule="evenodd" d="M83.8208 24.6576L87.8667 24.6576L87.8667 29.0713L83.8208 29.0713L83.8208 24.6576Z" fill="black"/>
<path fill-rule="evenodd" clip-rule="evenodd" d="M2.16819 99.6898L87.8667 99.6898L87.8667 103L2.16819 103L2.16819 99.6898Z" fill="black"/>
<path fill-rule="evenodd" clip-rule="evenodd" d="M91.1769 29.8069L91.1769 99.6898L87.8667 99.6898L87.8667 29.8069L91.1769 29.8069Z" fill="black"/>
<path fill-rule="evenodd" clip-rule="evenodd" d="M87.8669 33.8527L87.8669 99.6898L69.1089 99.6898L69.1089 33.8527L87.8669 33.8527Z" fill="#F1E8DC"/>
<path fill-rule="evenodd" clip-rule="evenodd" d="M63.2233 3.32493L63.2233 29.8069L59.9131 29.8069L59.9131 3.32493L63.2233 3.32493Z" fill="black"/>
<path fill-rule="evenodd" clip-rule="evenodd" d="M3.63934 3.32494L3.63934 99.6898L0.329102 99.6898L0.329106 3.32494L3.63934 3.32494Z" fill="black"/>
<path fill-rule="evenodd" clip-rule="evenodd" d="M11.7949 26.4752L42.6655 26.4752L42.6655 30.0033L11.7949 30.0033L11.7949 26.4752Z" fill="black"/>
<path fill-rule="evenodd" clip-rule="evenodd" d="M18.8511 16.773L42.6655 16.773L42.6655 20.3011L18.8511 20.3011L18.8511 16.773Z" fill="black"/>
<path fill-rule="evenodd" clip-rule="evenodd" d="M11.795 16.773L16.2051 16.773L16.2051 20.3011L11.795 20.3011L11.795 16.773Z" fill="black"/>
<path fill-rule="evenodd" clip-rule="evenodd" d="M11.795 36.1774L23.2612 36.1774L23.2612 39.7055L11.795 39.7055L11.795 36.1774Z" fill="black"/>
<path fill-rule="evenodd" clip-rule="evenodd" d="M25.0255 36.1774L36.4917 36.1774L36.4917 39.7055L25.0255 39.7055L25.0255 36.1774Z" fill="black"/>
<path fill-rule="evenodd" clip-rule="evenodd" d="M38.2554 36.1774L42.6655 36.1774L42.6655 39.7055L38.2554 39.7055L38.2554 36.1774Z" fill="black"/>
<path fill-rule="evenodd" clip-rule="evenodd" d="M42.6655 76.7502L73.5361 76.7502L73.5361 80.2783L42.6655 80.2783L42.6655 76.7502Z" fill="black"/>
<path fill-rule="evenodd" clip-rule="evenodd" d="M49.7217 67.048L73.5361 67.048L73.5361 70.5761L49.7217 70.5761L49.7217 67.048Z" fill="black"/>
<path fill-rule="evenodd" clip-rule="evenodd" d="M42.6661 67.048L47.0762 67.048L47.0762 70.5761L42.6661 70.5761L42.6661 67.048Z" fill="black"/>
<path fill-rule="evenodd" clip-rule="evenodd" d="M42.6656 86.4524L54.1318 86.4524L54.1318 89.9805L42.6656 89.9805L42.6656 86.4524Z" fill="black"/>
<path fill-rule="evenodd" clip-rule="evenodd" d="M55.8961 86.4524L67.3623 86.4524L67.3623 89.9805L55.8961 89.9805L55.8961 86.4524Z" fill="black"/>
<path fill-rule="evenodd" clip-rule="evenodd" d="M69.126 86.4524L73.5361 86.4524L73.5361 89.9805L69.126 89.9805L69.126 86.4524Z" fill="black"/>
</svg>
