<svg width="100" height="100" viewBox="0 0 100 100" fill="none" xmlns="http://www.w3.org/2000/svg">
<path d="M20 20.5L17.2891 25V76.2718L20 79L24.5 82.2846L76 81.5L79 78.5L81.8558 74.5V25L79 20.0085L76.5 18.5L23 18L20 20.5Z" fill="#3B91CF"/>
<path d="M18.5 20.5L17.2891 23.7308V74.5L18.4344 78.5L20.725 80.3611H22.5861V17.1453L22 18L18.5 20.5Z" fill="#0160A6"/>
<path d="M23.4449 80.297L19.7226 79.1517L17.4168 76.5L16.8594 76.5L16.8594 75.8589L17.4168 76.5L81.9987 76.5L81.9987 76.8611L80.1376 79.1517L75.9859 80.297L23.4449 80.297Z" fill="#0160A6"/>
<path fill-rule="evenodd" clip-rule="evenodd" d="M22.0131 75.8425L22.0131 77.8466L24.0171 77.8466L24.0171 75.8425L22.0131 75.8425Z" fill="#0160A6"/>
<rect x="27.4531" y="42.6284" width="8.30348" height="30.3506" fill="white"/>
<rect x="43.2007" y="42.6284" width="8.30348" height="30.3506" fill="white"/>
<rect x="63.5303" y="48.355" width="8.30348" height="24.6241" fill="white"/>
<path d="M56.6584 42.9148L49.2139 47.3529V57.2312L52.0771 56.0858L53.3656 52.7931L56.6584 51.7909L61.2396 52.7931L62.8144 55.37L71.9769 54.7974V46.7802L69.1136 44.0601L65.3913 41.6263H58.3763L56.6584 42.9148Z" fill="white"/>
<path fill-rule="evenodd" clip-rule="evenodd" d="M16 76L16 24L19 24L19 76L16 76Z" fill="black"/>
<path fill-rule="evenodd" clip-rule="evenodd" d="M25 71L25 44L28 44L28 71L25 71Z" fill="black"/>
<path fill-rule="evenodd" clip-rule="evenodd" d="M41 71L41 44L44 44L44 71L41 71Z" fill="black"/>
<path fill-rule="evenodd" clip-rule="evenodd" d="M61 71L61 54L64 54L64 71L61 71Z" fill="black"/>
<path fill-rule="evenodd" clip-rule="evenodd" d="M35 71L35 44L38 44L38 71L35 71Z" fill="black"/>
<path fill-rule="evenodd" clip-rule="evenodd" d="M50 71L50 54L53 54L53 71L50 71Z" fill="black"/>
<path fill-rule="evenodd" clip-rule="evenodd" d="M50.932 47.7819L50.932 43.7738L52.936 43.7738L52.936 47.7819L50.932 47.7819Z" fill="black"/>
<path fill-rule="evenodd" clip-rule="evenodd" d="M71 71L71 46L74 46L74 71L71 71Z" fill="black"/>
<path fill-rule="evenodd" clip-rule="evenodd" d="M34.3238 42.973H28.8843V40.6241H34.3238V42.973Z" fill="black"/>
<path fill-rule="evenodd" clip-rule="evenodd" d="M36.3292 44.3152H34.3252V41.9663H36.3292V44.3152Z" fill="black"/>
<path fill-rule="evenodd" clip-rule="evenodd" d="M28.8844 44.3151H26.8804V41.9662H28.8844V44.3151Z" fill="black"/>
<path fill-rule="evenodd" clip-rule="evenodd" d="M50.0709 42.973H44.6313V40.6241H50.0709V42.973Z" fill="black"/>
<path fill-rule="evenodd" clip-rule="evenodd" d="M52.0758 44.3152H50.0718V41.9663H52.0758V44.3152Z" fill="black"/>
<path fill-rule="evenodd" clip-rule="evenodd" d="M44.632 44.3151H42.6279V41.9662H44.632V44.3151Z" fill="black"/>
<path fill-rule="evenodd" clip-rule="evenodd" d="M60.0933 52.9358H54.6538V50.9318H60.0933V52.9358Z" fill="black"/>
<path fill-rule="evenodd" clip-rule="evenodd" d="M62.0988 54.0812H60.0947V52.0771H62.0988V54.0812Z" fill="black"/>
<path fill-rule="evenodd" clip-rule="evenodd" d="M54.6539 54.0811H52.6499V52.077H54.6539V54.0811Z" fill="black"/>
<path fill-rule="evenodd" clip-rule="evenodd" d="M66.5302 42.9733H57.1475V40.6241H66.5302V42.9733Z" fill="black"/>
<path fill-rule="evenodd" clip-rule="evenodd" d="M68.7938 44.3152H66.5293V41.9663H68.7938V44.3152Z" fill="black"/>
<path fill-rule="evenodd" clip-rule="evenodd" d="M71.0585 45.6577H68.7939V43.3088H71.0585V45.6577Z" fill="black"/>
<path fill-rule="evenodd" clip-rule="evenodd" d="M72.9999 47.0001H70.7354V44.6512H72.9999V47.0001Z" fill="black"/>
<path fill-rule="evenodd" clip-rule="evenodd" d="M57.1459 44.3151H54.8813V41.9662H57.1459V44.3151Z" fill="black"/>
<path fill-rule="evenodd" clip-rule="evenodd" d="M55.2064 45.6577H52.9419V43.3088H55.2064V45.6577Z" fill="black"/>
<path fill-rule="evenodd" clip-rule="evenodd" d="M53.2645 47.0001H51V44.6512H53.2645V47.0001Z" fill="black"/>
<path fill-rule="evenodd" clip-rule="evenodd" d="M28.8862 72.1205L34.3257 72.1205L34.3257 74.1245L28.8862 74.1245L28.8862 72.1205Z" fill="black"/>
<path fill-rule="evenodd" clip-rule="evenodd" d="M26.8807 70.9751L28.8848 70.9751L28.8848 72.9791L26.8807 72.9791L26.8807 70.9751Z" fill="black"/>
<path fill-rule="evenodd" clip-rule="evenodd" d="M34.3256 70.9752L36.3296 70.9752L36.3296 72.9792L34.3256 72.9792L34.3256 70.9752Z" fill="black"/>
<path fill-rule="evenodd" clip-rule="evenodd" d="M44.6327 72.1205L50.0723 72.1205L50.0723 74.1245L44.6327 74.1245L44.6327 72.1205Z" fill="black"/>
<path fill-rule="evenodd" clip-rule="evenodd" d="M42.6283 70.9751L44.6323 70.9751L44.6323 72.9791L42.6283 72.9791L42.6283 70.9751Z" fill="black"/>
<path fill-rule="evenodd" clip-rule="evenodd" d="M50.0731 70.9751L52.0771 70.9751L52.0771 72.9791L50.0731 72.9791L50.0731 70.9751Z" fill="black"/>
<path fill-rule="evenodd" clip-rule="evenodd" d="M64.9623 72.1205L70.4019 72.1205L70.4019 74.1245L64.9623 74.1245L64.9623 72.1205Z" fill="black"/>
<path fill-rule="evenodd" clip-rule="evenodd" d="M62.9579 70.9751L64.9619 70.9751L64.9619 72.9791L62.9579 72.9791L62.9579 70.9751Z" fill="black"/>
<path fill-rule="evenodd" clip-rule="evenodd" d="M70.4027 70.9751L72.4067 70.9751L72.4067 72.9791L70.4027 72.9791L70.4027 70.9751Z" fill="black"/>
<path fill-rule="evenodd" clip-rule="evenodd" d="M80 76L80 24L83 24L83 76L80 76Z" fill="black"/>
<path fill-rule="evenodd" clip-rule="evenodd" d="M23 16L76 16V19L23 19V16Z" fill="black"/>
<path fill-rule="evenodd" clip-rule="evenodd" d="M20 17H23V20H20V17Z" fill="black"/>
<path fill-rule="evenodd" clip-rule="evenodd" d="M17 21H20V24H17V21Z" fill="black"/>
<path fill-rule="evenodd" clip-rule="evenodd" d="M18 19H21V22H18V19Z" fill="black"/>
<path fill-rule="evenodd" clip-rule="evenodd" d="M79 82L76 82L76 79L79 79L79 82Z" fill="black"/>
<path fill-rule="evenodd" clip-rule="evenodd" d="M82 78L79 78L79 75L82 75L82 78Z" fill="black"/>
<path fill-rule="evenodd" clip-rule="evenodd" d="M81 80L78 80L78 77L81 77L81 80Z" fill="black"/>
<path fill-rule="evenodd" clip-rule="evenodd" d="M79 17H76V20H79V17Z" fill="black"/>
<path fill-rule="evenodd" clip-rule="evenodd" d="M82 21H79V24H82V21Z" fill="black"/>
<path fill-rule="evenodd" clip-rule="evenodd" d="M81 19H78V22H81V19Z" fill="black"/>
<path fill-rule="evenodd" clip-rule="evenodd" d="M20 82L23 82L23 79L20 79L20 82Z" fill="black"/>
<path fill-rule="evenodd" clip-rule="evenodd" d="M17 78L20 78L20 75L17 75L17 78Z" fill="black"/>
<path fill-rule="evenodd" clip-rule="evenodd" d="M18 80L21 80L21 77L18 77L18 80Z" fill="black"/>
<path fill-rule="evenodd" clip-rule="evenodd" d="M23 80H76V83H23V80Z" fill="black"/>
<ellipse cx="31.6051" cy="31.5773" rx="5.69351" ry="5.95231" fill="white"/>
<rect x="34.2969" y="24.59" width="2.41003" height="5.38227" transform="rotate(90 34.2969 24.59)" fill="black"/>
<rect x="24.8755" y="28.6272" width="2.12451" height="5.38227" fill="black"/>
<rect x="38.3335" y="34.0103" width="2.3335" height="5.38227" transform="rotate(-180 38.3335 34.0103)" fill="black"/>
<rect x="28.9131" y="38.0476" width="2.04761" height="5.38227" transform="rotate(-90 28.9131 38.0476)" fill="black"/>
<rect x="28.9131" y="25.9357" width="1.34557" height="2.69114" transform="rotate(90 28.9131 25.9357)" fill="black"/>
<rect x="27.5674" y="28.6272" width="1.34557" height="2.69114" transform="rotate(-180 27.5674 28.6272)" fill="black"/>
<rect x="34.2969" y="36.7015" width="1.34557" height="2.69114" transform="rotate(-90 34.2969 36.7015)" fill="black"/>
<rect x="35.6421" y="34.0099" width="1.34557" height="2.69114" fill="black"/>
<rect x="36.9883" y="28.6273" width="1.34557" height="2.69114" transform="rotate(-180 36.9883 28.6273)" fill="black"/>
<rect x="34.2969" y="27.2812" width="1.34557" height="2.69114" transform="rotate(-90 34.2969 27.2812)" fill="black"/>
<rect x="26.2217" y="34.0099" width="1.34557" height="2.69114" fill="black"/>
<rect x="28.9131" y="35.3558" width="1.34557" height="2.69114" transform="rotate(90 28.9131 35.3558)" fill="black"/>
</svg>
