<svg width="69" height="69" viewBox="0 0 69 69" fill="none" xmlns="http://www.w3.org/2000/svg">
<path d="M13.3747 22.1198L6.68735 15.1752L14.4035 6.17297L17.7472 9.51666L21.6053 12.0887L27.2639 9.51666L32.1508 16.7184L27.2639 18.7761L21.6053 22.1198L17.7472 30.0932V38.3238L21.6053 44.2395L12.6031 46.2972L10.2882 42.1819L8.745 40.3814L1.02881 39.6098V28.8071L9.51662 27.5211L10.2882 24.1774L13.3747 22.1198Z" fill="#0095E9"/>
<ellipse cx="34.4652" cy="34.723" rx="5.65854" ry="5.91575" fill="#0095E9"/>
<path d="M55.5564 46.5544L62.2438 53.499L54.5276 62.5012L51.1839 59.1575L47.3258 56.5855L41.6673 59.1575L36.7804 51.9558L41.6673 49.8981L47.3258 46.5544L51.1839 38.581L51.1839 30.3504L47.3258 24.4347L56.3281 22.377L58.6429 26.4923L60.1862 28.2928L67.9023 29.0644L67.9023 39.867L59.4145 41.1531L58.6429 44.4968L55.5564 46.5544Z" fill="#0095E9"/>
<path d="M22.1197 55.2994L15.1751 61.9868L6.17285 54.2706L9.51654 50.9269L12.0886 47.0688L9.51653 41.4102L16.7183 36.5233L18.776 41.4102L22.1197 47.0688L30.0931 50.9269L38.3237 50.9269L44.2394 47.0688L46.2971 56.071L42.1818 58.3859L40.3813 59.9291L39.6097 67.6453L28.807 67.6453L27.521 59.1575L24.1773 58.3859L22.1197 55.2994Z" fill="#0095E9"/>
<path d="M46.8115 13.3747L53.7561 6.68732L62.7583 14.4035L59.4146 17.7472L56.8426 21.6053L59.4146 27.2638L52.2128 32.1508L50.1552 27.2638L46.8115 21.6053L38.8381 17.7472L30.6075 17.7472L24.6917 21.6053L22.6341 12.6031L26.7494 10.2882L28.5498 8.74497L29.3215 1.02878L40.1241 1.02878L41.4102 9.51659L44.7538 10.2882L46.8115 13.3747Z" fill="#0095E9"/>
<rect x="37.1406" y="28.807" width="1.54324" height="5.34989" transform="rotate(90 37.1406 28.807)" fill="white"/>
<rect x="29.3218" y="31.7908" width="1.33747" height="5.34989" fill="white"/>
<rect x="37.1411" y="27.7784" width="1.33747" height="5.34989" transform="rotate(90 37.1411 27.7784)" fill="black"/>
<rect x="33.0254" y="30.3503" width="1.33747" height="2.67495" transform="rotate(90 33.0254 30.3503)" fill="white"/>
<rect x="31.688" y="33.0253" width="1.33747" height="2.67495" transform="rotate(-180 31.688 33.0253)" fill="white"/>
<rect x="29.835" y="52.9844" width="2.05765" height="9.25918" transform="rotate(-90 29.835 52.9844)" fill="white"/>
<rect x="39.0947" y="50.9269" width="2.05765" height="4.1153" transform="rotate(-90 39.0947 50.9269)" fill="white"/>
<rect x="43.21" y="48.8692" width="2.57206" height="3.60089" transform="rotate(-90 43.21 48.8692)" fill="white"/>
<rect x="45.7827" y="46.2971" width="2.05765" height="2.57206" transform="rotate(-90 45.7827 46.2971)" fill="white"/>
<rect x="48.354" y="44.2394" width="4.62972" height="1.54324" transform="rotate(-90 48.354 44.2394)" fill="white"/>
<rect x="51.9556" y="36.944" width="2.05765" height="9.25918" transform="rotate(-180 51.9556 36.944)" fill="white"/>
<rect x="49.8979" y="27.6848" width="2.05765" height="4.1153" transform="rotate(-180 49.8979 27.6848)" fill="white"/>
<rect x="47.8408" y="23.5694" width="2.57206" height="3.60089" transform="rotate(-180 47.8408 23.5694)" fill="white"/>
<rect x="45.2681" y="20.9973" width="2.05765" height="2.57206" transform="rotate(-180 45.2681 20.9973)" fill="white"/>
<rect x="43.2109" y="18.4252" width="4.62972" height="1.54324" transform="rotate(-180 43.2109 18.4252)" fill="white"/>
<rect x="16.4609" y="30.8649" width="2.05765" height="9.25918" fill="white"/>
<rect x="18.5186" y="40.1242" width="2.05765" height="4.1153" fill="white"/>
<rect x="20.5762" y="44.2395" width="2.57206" height="3.60089" fill="white"/>
<rect x="23.1484" y="46.8116" width="2.05765" height="2.57206" fill="white"/>
<rect x="25.2061" y="49.3837" width="4.62972" height="1.54324" fill="white"/>
<rect x="27.7778" y="31.7908" width="1.33747" height="5.34989" fill="black"/>
<rect x="41.1528" y="37.1407" width="1.33747" height="5.34989" transform="rotate(-180 41.1528 37.1407)" fill="black"/>
<rect x="31.7905" y="41.1532" width="1.33747" height="5.34989" transform="rotate(-90 31.7905 41.1532)" fill="black"/>
<rect x="31.7905" y="29.1158" width="1.33747" height="2.67495" transform="rotate(90 31.7905 29.1158)" fill="black"/>
<rect x="30.4531" y="31.7907" width="1.33747" height="2.67495" transform="rotate(-180 30.4531 31.7907)" fill="black"/>
<rect x="37.1406" y="39.8157" width="1.33747" height="2.67495" transform="rotate(-90 37.1406 39.8157)" fill="black"/>
<rect x="38.478" y="37.1407" width="1.33747" height="2.67495" fill="black"/>
<rect x="39.8154" y="31.7908" width="1.33747" height="2.67495" transform="rotate(-180 39.8154 31.7908)" fill="black"/>
<rect x="37.1406" y="30.4532" width="1.33747" height="2.67495" transform="rotate(-90 37.1406 30.4532)" fill="black"/>
<rect x="29.1157" y="37.1406" width="1.33747" height="2.67495" fill="black"/>
<rect x="31.7905" y="38.4781" width="1.33747" height="2.67495" transform="rotate(90 31.7905 38.4781)" fill="black"/>
<rect x="38.5815" y="15.9469" width="2.05765" height="9.25918" transform="rotate(90 38.5815 15.9469)" fill="black"/>
<rect x="29.3218" y="18.0046" width="2.05765" height="4.1153" transform="rotate(90 29.3218 18.0046)" fill="black"/>
<rect x="25.207" y="20.0621" width="2.57206" height="3.60089" transform="rotate(90 25.207 20.0621)" fill="black"/>
<rect x="22.6338" y="22.6342" width="2.05765" height="2.57206" transform="rotate(90 22.6338 22.6342)" fill="black"/>
<rect x="20.0625" y="24.6919" width="4.62972" height="1.54324" transform="rotate(90 20.0625 24.6919)" fill="black"/>
<rect x="29.835" y="51.4412" width="2.05765" height="9.25918" transform="rotate(-90 29.835 51.4412)" fill="black"/>
<rect x="39.0947" y="49.3837" width="2.05765" height="4.1153" transform="rotate(-90 39.0947 49.3837)" fill="black"/>
<rect x="43.21" y="47.326" width="2.57206" height="3.60089" transform="rotate(-90 43.21 47.326)" fill="black"/>
<rect x="45.7827" y="44.7539" width="2.05765" height="2.57206" transform="rotate(-90 45.7827 44.7539)" fill="black"/>
<rect x="48.354" y="42.6962" width="4.62972" height="1.54324" transform="rotate(-90 48.354 42.6962)" fill="black"/>
<rect x="51.9556" y="38.0666" width="2.05765" height="9.25918" transform="rotate(-180 51.9556 38.0666)" fill="black"/>
<rect x="49.8979" y="28.8072" width="2.05765" height="4.1153" transform="rotate(-180 49.8979 28.8072)" fill="black"/>
<rect x="47.8408" y="24.6919" width="2.57206" height="3.60089" transform="rotate(-180 47.8408 24.6919)" fill="black"/>
<rect x="45.2681" y="22.1198" width="2.05765" height="2.57206" transform="rotate(-180 45.2681 22.1198)" fill="black"/>
<rect x="43.2109" y="19.5477" width="4.62972" height="1.54324" transform="rotate(-180 43.2109 19.5477)" fill="black"/>
<rect x="16.4609" y="29.3216" width="2.05765" height="9.25918" fill="black"/>
<rect x="18.5186" y="38.581" width="2.05765" height="4.1153" fill="black"/>
<rect x="20.5762" y="42.6963" width="2.57206" height="3.60089" fill="black"/>
<rect x="23.1484" y="45.2684" width="2.05765" height="2.57206" fill="black"/>
<rect x="25.2061" y="47.8404" width="4.62972" height="1.54324" fill="black"/>
<rect x="29.8354" y="3.08642" width="7.20178" height="2.05765" transform="rotate(90 29.8354 3.08642)" fill="white"/>
<rect x="41.1528" y="1.02878" width="2.05765" height="13.8891" transform="rotate(90 41.1528 1.02878)" fill="white"/>
<rect x="41.1528" y="7.62939e-06" width="2.05765" height="13.8891" transform="rotate(90 41.1528 7.62939e-06)" fill="black"/>
<rect x="45.2681" y="9.25941" width="2.05765" height="4.1153" transform="rotate(90 45.2681 9.25941)" fill="black"/>
<rect x="47.8403" y="11.3171" width="2.05765" height="2.57206" transform="rotate(90 47.8403 11.3171)" fill="black"/>
<rect x="50.4126" y="9.25941" width="2.05765" height="2.57206" transform="rotate(90 50.4126 9.25941)" fill="black"/>
<rect x="52.9844" y="7.20176" width="2.05765" height="2.57206" transform="rotate(90 52.9844 7.20176)" fill="black"/>
<rect x="54.5278" y="4.62976" width="2.57206" height="2.57206" transform="rotate(90 54.5278 4.62976)" fill="black"/>
<rect x="57.1001" y="6.68742" width="2.57206" height="2.57206" transform="rotate(90 57.1001 6.68742)" fill="black"/>
<rect x="58.6431" y="8.74508" width="2.57206" height="2.57206" transform="rotate(90 58.6431 8.74508)" fill="black"/>
<rect x="61.2148" y="10.8027" width="2.57206" height="2.57206" transform="rotate(90 61.2148 10.8027)" fill="black"/>
<rect x="63.7871" y="13.3747" width="2.57206" height="2.57206" transform="rotate(90 63.7871 13.3747)" fill="black"/>
<rect x="61.2148" y="15.4324" width="2.57206" height="2.57206" transform="rotate(90 61.2148 15.4324)" fill="black"/>
<rect x="59.1572" y="18.0045" width="2.57206" height="2.57206" transform="rotate(90 59.1572 18.0045)" fill="black"/>
<rect x="57.1001" y="20.0621" width="2.57206" height="2.57206" transform="rotate(90 57.1001 20.0621)" fill="black"/>
<rect x="59.1572" y="22.6342" width="4.62972" height="2.57206" transform="rotate(90 59.1572 22.6342)" fill="black"/>
<rect x="29.3213" y="2.05766" width="7.20178" height="2.05765" transform="rotate(90 29.3213 2.05766)" fill="black"/>
<rect x="41.1528" y="2.05766" width="7.20178" height="2.05765" transform="rotate(90 41.1528 2.05766)" fill="black"/>
<rect x="68.417" y="41.153" width="2.05765" height="13.8891" transform="rotate(-180 68.417 41.153)" fill="black"/>
<rect x="59.1577" y="45.2683" width="2.05765" height="4.1153" transform="rotate(-180 59.1577 45.2683)" fill="black"/>
<rect x="57.0996" y="47.8403" width="2.05765" height="2.57206" transform="rotate(-180 57.0996 47.8403)" fill="black"/>
<rect x="59.1577" y="50.4124" width="2.05765" height="2.57206" transform="rotate(-180 59.1577 50.4124)" fill="black"/>
<rect x="61.2153" y="52.9845" width="2.05765" height="2.57206" transform="rotate(-180 61.2153 52.9845)" fill="black"/>
<rect x="63.7871" y="54.5277" width="2.57206" height="2.57206" transform="rotate(-180 63.7871 54.5277)" fill="black"/>
<rect x="61.7295" y="57.0998" width="2.57206" height="2.57206" transform="rotate(-180 61.7295 57.0998)" fill="black"/>
<rect x="59.6719" y="58.643" width="2.57206" height="2.57206" transform="rotate(-180 59.6719 58.643)" fill="black"/>
<rect x="57.6143" y="61.2151" width="2.57206" height="2.57206" transform="rotate(-180 57.6143 61.2151)" fill="black"/>
<rect x="55.0425" y="63.7871" width="2.57206" height="2.57206" transform="rotate(-180 55.0425 63.7871)" fill="black"/>
<rect x="52.9849" y="61.2151" width="2.57206" height="2.57206" transform="rotate(-180 52.9849 61.2151)" fill="black"/>
<rect x="50.4126" y="59.1575" width="2.57206" height="2.57206" transform="rotate(-180 50.4126 59.1575)" fill="black"/>
<rect x="48.3545" y="57.0998" width="2.57206" height="2.57206" transform="rotate(-180 48.3545 57.0998)" fill="black"/>
<rect x="45.7832" y="59.1575" width="4.62972" height="2.57206" transform="rotate(-180 45.7832 59.1575)" fill="black"/>
<rect x="66.3594" y="29.3215" width="7.20178" height="2.05765" transform="rotate(-180 66.3594 29.3215)" fill="black"/>
<rect x="66.3594" y="41.153" width="7.20178" height="2.05765" transform="rotate(-180 66.3594 41.153)" fill="black"/>
<rect x="27.2642" y="68.4169" width="2.05765" height="13.8891" transform="rotate(-90 27.2642 68.4169)" fill="black"/>
<rect x="23.1484" y="59.1575" width="2.05765" height="4.1153" transform="rotate(-90 23.1484 59.1575)" fill="black"/>
<rect x="20.5762" y="57.0999" width="2.05765" height="2.57206" transform="rotate(-90 20.5762 57.0999)" fill="black"/>
<rect x="18.0044" y="59.1575" width="2.05765" height="2.57206" transform="rotate(-90 18.0044 59.1575)" fill="black"/>
<rect x="15.4321" y="61.2152" width="2.05765" height="2.57206" transform="rotate(-90 15.4321 61.2152)" fill="black"/>
<rect x="13.8896" y="63.7872" width="2.57206" height="2.57206" transform="rotate(-90 13.8896 63.7872)" fill="black"/>
<rect x="11.3174" y="61.7295" width="2.57206" height="2.57206" transform="rotate(-90 11.3174 61.7295)" fill="black"/>
<rect x="9.77393" y="59.6718" width="2.57206" height="2.57206" transform="rotate(-90 9.77393 59.6718)" fill="black"/>
<rect x="7.20166" y="57.6142" width="2.57206" height="2.57206" transform="rotate(-90 7.20166 57.6142)" fill="black"/>
<rect x="4.62939" y="55.0422" width="2.57206" height="2.57206" transform="rotate(-90 4.62939 55.0422)" fill="black"/>
<rect x="7.20166" y="52.9845" width="2.57206" height="2.57206" transform="rotate(-90 7.20166 52.9845)" fill="black"/>
<rect x="9.25928" y="50.4124" width="2.57206" height="2.57206" transform="rotate(-90 9.25928 50.4124)" fill="black"/>
<rect x="11.3174" y="48.3548" width="2.57206" height="2.57206" transform="rotate(-90 11.3174 48.3548)" fill="black"/>
<rect x="9.25928" y="45.7827" width="4.62972" height="2.57206" transform="rotate(-90 9.25928 45.7827)" fill="black"/>
<rect x="39.0952" y="66.3593" width="7.20178" height="2.05765" transform="rotate(-90 39.0952 66.3593)" fill="black"/>
<rect x="27.2642" y="66.3593" width="7.20178" height="2.05765" transform="rotate(-90 27.2642 66.3593)" fill="black"/>
<rect y="27.2639" width="2.05765" height="13.8891" fill="black"/>
<rect x="9.25928" y="23.1486" width="2.05765" height="4.1153" fill="black"/>
<rect x="11.3174" y="20.5766" width="2.05765" height="2.57206" fill="black"/>
<rect x="9.25928" y="18.0045" width="2.05765" height="2.57206" fill="black"/>
<rect x="7.20166" y="15.4324" width="2.05765" height="2.57206" fill="black"/>
<rect x="4.62939" y="13.8892" width="2.57206" height="2.57206" fill="black"/>
<rect x="20.5762" y="11.8315" width="2.57206" height="3.08648" fill="white"/>
<rect x="23.1484" y="9.25943" width="4.62972" height="3.60089" fill="white"/>
<rect x="6.6875" y="11.3171" width="2.57206" height="2.57206" fill="black"/>
<rect x="8.74463" y="9.77387" width="2.57206" height="2.57206" fill="black"/>
<rect x="10.8027" y="7.20177" width="2.57206" height="2.57206" fill="black"/>
<rect x="13.3745" y="4.62979" width="2.57206" height="2.57206" fill="black"/>
<rect x="15.4321" y="7.20177" width="2.57206" height="2.57206" fill="black"/>
<rect x="18.0044" y="9.25943" width="2.57206" height="2.57206" fill="black"/>
<rect x="20.0625" y="11.3171" width="2.57206" height="2.57206" fill="black"/>
<rect x="22.6338" y="9.25943" width="4.62972" height="2.57206" fill="black"/>
<rect x="2.05762" y="39.0954" width="7.20178" height="2.05765" fill="black"/>
<rect x="2.05762" y="27.2639" width="7.20178" height="2.05765" fill="black"/>
</svg>
