<?xml version="1.0" encoding="utf-8"?>
<!-- Generator: Adobe Illustrator 24.0.3, SVG Export Plug-In . SVG Version: 6.00 Build 0)  -->
<svg version="1.1" id="Capa_1" xmlns="http://www.w3.org/2000/svg" xmlns:xlink="http://www.w3.org/1999/xlink" x="0px" y="0px"
	 viewBox="0 0 185 170.2" style="enable-background:new 0 0 185 170.2;" xml:space="preserve">
<style type="text/css">
	.st0{fill:#555555;}
</style>
<title>corazon</title>
<rect y="34" class="st0" width="15.9" height="51.1"/>
<rect x="15.9" y="85.1" class="st0" width="17" height="17"/>
<rect x="32.9" y="102.2" class="st0" width="17" height="17"/>
<rect x="49.9" y="119.2" class="st0" width="17" height="17"/>
<rect x="67" y="136.2" class="st0" width="17" height="17"/>
<rect x="67" y="17" class="st0" width="17" height="17"/>
<rect x="84" y="153.2" class="st0" width="17" height="17"/>
<rect x="84" y="34" class="st0" width="17" height="17"/>
<rect x="15.9" y="17" class="st0" width="17" height="17"/>
<rect x="32.9" class="st0" width="34" height="17"/>
<rect x="169.1" y="34" class="st0" width="15.9" height="51.1"/>
<rect x="152.1" y="85.1" class="st0" width="17" height="17"/>
<rect x="135.1" y="102.2" class="st0" width="17" height="17"/>
<rect x="118" y="119.2" class="st0" width="17" height="17"/>
<rect x="101" y="136.2" class="st0" width="17" height="17"/>
<rect x="101" y="17" class="st0" width="17" height="17"/>
<rect x="152.1" y="17" class="st0" width="17" height="17"/>
<rect x="122.6" y="29.5" class="st0" width="23.8" height="12.5"/>
<rect x="146.4" y="42" class="st0" width="12.5" height="23.8"/>
<rect x="118" class="st0" width="34" height="17"/>
</svg>
